PathFileType	4	(X/Y/Z)	Patient4_TMGait_0pt5_01_right_01.trc.trc
DataRate	CameraRate	NumFrames	NumMarkers	Units	OrigDataRate	OrigDataStartFrame	OrigNumFrames
73.298429319372	73.298429319372	4	33	mm	73.298429319372	53	       141
Frame#	Time	L.ASIS			Sacral			L.Shoulder			Chest			R.Shoulder			Neck			R.ASIS			R.Thigh.Superior			R.Thigh.Lateral			R.Thigh.Inferior			R.Patella			L.Thigh.Superior			L.Thigh.Lateral			L.Thigh.Inferior			L.Patella			L.Shank.Superior			L.Shank.Lateral			L.Shank.Inferior			R.Shank.Superior			R.Shank.Lateral			R.Shank.Inferior			R.Heel			R.Midfoot.Superior			R.Midfoot.Lateral			R.Toe			L.Heel			L.Midfoot.Lateral			L.Midfoot.Superior			L.Toe			L.Elbow			L.Wrist			R.Elbow			R.Wrist			
		X1	Y1	Z1	X2	Y2	Z2	X3	Y3	Z3	X4	Y4	Z4	X5	Y5	Z5	X6	Y6	Z6	X7	Y7	Z7	X8	Y8	Z8	X9	Y9	Z9	X10	Y10	Z10	X11	Y11	Z11	X12	Y12	Z12	X13	Y13	Z13	X14	Y14	Z14	X15	Y15	Z15	X16	Y16	Z16	X17	Y17	Z17	X18	Y18	Z18	X19	Y19	Z19	X20	Y20	Z20	X21	Y21	Z21	X22	Y22	Z22	X23	Y23	Z23	X24	Y24	Z24	X25	Y25	Z25	X26	Y26	Z26	X27	Y27	Z27	X28	Y28	Z28	X29	Y29	Z29	X30	Y30	Z30	X31	Y31	Z31	X32	Y32	Z32	X33	Y33	Z33	

53	1.249428571429	731.692206032403	968.671570047394	355.846765238346	528.753601350394	1004.985689524304	528.603213732496	679.730308543506	1440.587781699466	346.509624282594	797.181969636182	1369.293913511720	497.097635520639	727.044582299793	1437.215431467182	680.092312782169	690.710861878583	1498.136549515265	499.075598262769	766.002362557528	942.093297637179	627.488509472432	800.035026452427	739.461678074100	592.465960179293	719.819112515358	632.335918705961	654.636070363899	789.534655683546	578.728323142386	569.193182153336	786.305708081132	489.635799134984	572.833950059873	822.876965335157	789.273472242787	384.688039330531	781.660713627916	660.604803999060	310.969740757012	885.588181031530	601.906125035004	372.604819105046	905.534074195583	516.819870602996	366.054065508308	855.286444516871	442.975672626318	356.722523989061	731.309387997229	366.429863540088	305.755044002107	754.383377435615	237.847277621605	359.056952564178	756.156609820798	401.934698063330	581.624370384889	683.769175058084	299.361229769487	642.198963642927	721.712562216125	204.728506598239	578.083696258596	582.762169429009	42.279121389804	545.069380536046	752.961886570311	97.462858826327	585.367295226123	663.969669607955	36.265058871162	622.657271756565	871.974622417993	45.959976997879	617.838069605278	589.045919164193	124.236468963429	394.544470664480	656.367191788760	98.446964722053	313.647306087277	754.815815663424	132.599134348663	336.072346787003	858.309359915956	46.556442128471	306.337324408574	614.628239086132	1088.646907724566	235.261124732597	678.604190554255	835.597881747540	220.635216008584	762.232581671155	1099.271624099064	812.298842209707	980.303678245590	965.121644773189	776.684892781067	
54	1.263071428571	729.774233194425	969.158333847385	355.763859280102	528.317546609087	1005.789563972762	530.273357674025	678.847873827445	1440.847703269661	347.106564921938	797.499888201893	1369.227088753577	496.583812216719	729.381083326460	1437.491688827257	680.269718753699	691.235276683819	1498.349747370026	499.538805824270	765.757135632170	941.863603161986	627.199918666466	797.408633694895	738.710220448609	591.859898531243	716.727173965785	632.226863403580	654.881151289857	785.198651242900	577.990345529031	568.974401438479	781.137689303177	489.054470944775	572.802222445296	821.215091799209	790.306546636212	384.821307131935	779.874501526620	661.438093440354	311.123164013595	883.207995276853	602.827543248564	373.460814998796	904.654463554680	519.987599818846	366.894708214510	859.090598137563	445.385242099098	356.951747631651	741.727054508981	360.054654644576	305.197067133796	774.317474363007	233.317914890715	358.504762664384	750.702639629154	401.519435646306	581.641573181053	677.956844953114	299.241337615062	642.282033291719	715.361194583256	204.473741381760	578.037686005705	575.870068590893	42.248093058581	545.064512140470	746.060025142102	97.394119906595	585.328868469685	657.076896551262	36.250136223978	622.681833173396	865.078900021715	45.896621967195	617.861156621760	618.328248006937	106.972650799207	393.447010688952	687.704545950754	86.869908238944	312.612855366931	783.042627464725	128.562206817904	335.325651054624	893.063293977694	51.224376220627	305.661783621714	609.474946909851	1089.336277893766	237.726968477742	661.762572626165	833.703085622823	223.832113375430	768.697910841417	1100.452280002370	812.373204849821	992.442609976653	978.065705296495	772.802315953777	
55	1.276714285714	728.076880675211	969.426897255989	355.586104607315	528.041375266689	1006.424985730860	531.764659707752	678.102224117323	1441.027515520825	347.601633321002	797.819121209376	1369.062371063691	496.047736161589	731.519063148268	1437.578619722159	680.353802033808	691.742977000393	1498.446052818995	499.926931536214	765.594218622733	941.586712318488	626.862576709069	794.951355775517	737.932435197430	591.308521666070	713.761144332386	632.062871278563	655.096112656342	781.046013233112	577.220454783780	568.806478234625	776.147936347932	488.431658317623	572.816074342863	819.167652021584	790.532940484669	384.791722605260	777.366258850579	661.681247202369	311.004991923656	879.888222363231	602.854657384680	374.203001034841	902.718955146089	522.517911293222	367.627721719855	861.964136329229	447.550687110442	357.136896688142	752.049002545371	353.680597526802	304.555699129263	794.082823825566	229.593796536377	358.162334181610	745.398192118477	401.060570100940	581.665160597354	672.262958929833	299.101126235505	642.366027197973	709.068691953138	204.176470174894	577.992620951603	568.990328695705	42.227596001336	545.076404660207	739.156678556901	97.301411936396	585.279918085513	650.188999094054	36.234299739708	622.703929590255	858.192912067304	45.781633177073	617.890188191918	648.415517054535	91.168821639131	392.549276625922	719.647403122758	76.678758905800	311.990988657517	811.282304416522	125.748694758366	335.022342170895	927.272394874318	57.442429051630	305.917865367906	604.361575528250	1090.126740552055	239.873731969918	645.892957745553	832.600021807017	226.986279202706	775.062267498134	1101.347374182931	811.966746603264	1003.779951182007	991.033491267295	768.442527833977	
56	1.290357142857	726.613529737662	969.471949508339	355.325618628528	527.925083989645	1006.872410494535	533.065709678487	677.496517501786	1441.121163171642	347.976012326928	798.132101927352	1368.808966924538	495.489018986831	733.422642219328	1437.489030002758	680.335240904373	692.226805151694	1498.427099848905	500.219684568764	765.527374591325	941.266387178216	626.482499036386	792.704502409796	737.132954621746	590.814782085215	710.946601452574	631.842758046296	655.269696165802	777.109575271328	576.417809429578	568.682499504408	771.366937368417	487.762634355204	572.861244287612	816.760521259718	789.984240889134	384.624056420367	774.268372808821	661.384333193989	310.608425792926	875.827714348561	602.093163266416	374.791444785060	899.922869720282	524.449838325103	368.239584483504	863.988968707004	449.508025482120	357.278041240073	762.171679552693	347.572298879985	303.877735996197	813.333449099795	226.890076918153	358.058257224099	740.266069990039	400.557215445937	581.682356928225	666.706220212270	298.946452349484	642.443981387911	702.846249934552	203.841248772598	577.944108414908	562.122458247432	42.223775533576	545.105307328135	732.254121543731	97.186342296453	585.221030984766	643.307150257499	36.220534826250	622.721416196352	851.318506728968	45.611790850817	617.926861342923	678.678582211378	77.357931681077	391.920368803330	751.568379035662	68.228846127607	311.853933418317	839.006600236296	124.337042669812	335.194744919987	960.282517992527	65.152825041789	307.157456500717	599.236076033592	1091.020089719929	241.695004595685	631.093642171878	832.187686884546	230.044373010737	781.344627615730	1101.967373587110	811.069533472266	1014.296918106033	1003.921413677942	763.647519251331	
